HIERARCHY
ROOT Hips
{
	OFFSET 0.000000 0.000000 0.000000
	CHANNELS 6 Xposition Yposition Zposition Xrotation Yrotation Zrotation
	JOINT Spine
	{
		OFFSET 0.000000 0.042231 0.063346
		CHANNELS 3 Xrotation Yrotation Zrotation
		JOINT Spine1
		{
			OFFSET 0.000000 0.014667 0.083179
			CHANNELS 3 Xrotation Yrotation Zrotation
			JOINT Spine2
			{
				OFFSET 0.000000 0.007361 0.084141
				CHANNELS 3 Xrotation Yrotation Zrotation
				JOINT Spine3
				{
					OFFSET 0.000000 0.000000 0.084462
					CHANNELS 3 Xrotation Yrotation Zrotation
					JOINT Neck
					{
						OFFSET 0.000000 -0.031673 0.221713
						CHANNELS 3 Xrotation Yrotation Zrotation
						JOINT Head
						{
							OFFSET 0.000000 -0.020167 0.114371
							CHANNELS 3 Xrotation Yrotation Zrotation
							End Site
							{
								OFFSET 0.000000 0.000000 0.000000
							}
						}
					}
					JOINT RightShoulder
					{
						OFFSET -0.029161 -0.048602 0.157471
						CHANNELS 3 Xrotation Yrotation Zrotation
						JOINT RightArm
						{
							OFFSET -0.144834 0.000000 0.000000
							CHANNELS 3 Xrotation Yrotation Zrotation
							JOINT RightForeArm
							{
								OFFSET -0.274949 0.000000 0.000000
								CHANNELS 3 Xrotation Yrotation Zrotation
								JOINT RightHand
								{
									OFFSET -0.254725 0.000000 0.000000
									CHANNELS 3 Xrotation Yrotation Zrotation
									JOINT RightHandEnd
									{
										OFFSET -0.068160 0.000000 0.000000
										CHANNELS 3 Xrotation Yrotation Zrotation
										End Site
										{
											OFFSET 0.000000 0.000000 0.000000
										}
									}
									JOINT RightHandThumb1
									{
										OFFSET -0.027264 -0.045440 -0.018176
										CHANNELS 3 Xrotation Yrotation Zrotation
										End Site
										{
											OFFSET 0.000000 0.000000 0.000000
										}
									}
								}
							}
						}
					}
					JOINT LeftShoulder
					{
						OFFSET 0.029161 -0.048602 0.157471
						CHANNELS 3 Xrotation Yrotation Zrotation
						JOINT LeftArm
						{
							OFFSET 0.144834 0.000000 0.000000
							CHANNELS 3 Xrotation Yrotation Zrotation
							JOINT LeftForeArm
							{
								OFFSET 0.274949 0.000000 0.000000
								CHANNELS 3 Xrotation Yrotation Zrotation
								JOINT LeftHand
								{
									OFFSET 0.254725 0.000000 0.000000
									CHANNELS 3 Xrotation Yrotation Zrotation
									JOINT LeftHandEnd
									{
										OFFSET 0.068160 0.000000 0.000000
										CHANNELS 3 Xrotation Yrotation Zrotation
										End Site
										{
											OFFSET 0.000000 0.000000 0.000000
										}
									}
									JOINT LeftHandThumb1
									{
										OFFSET 0.027264 -0.045440 -0.018176
										CHANNELS 3 Xrotation Yrotation Zrotation
										End Site
										{
											OFFSET 0.000000 0.000000 0.000000
										}
									}
								}
							}
						}
					}
				}
			}
		}
	}
	JOINT RightUpLeg
	{
		OFFSET -0.086512 0.000000 -0.025273
		CHANNELS 3 Xrotation Yrotation Zrotation
		JOINT RightLeg
		{
			OFFSET 0.000000 0.000000 -0.433119
			CHANNELS 3 Xrotation Yrotation Zrotation
			JOINT RightFoot
			{
				OFFSET 0.000000 0.000000 -0.404688
				CHANNELS 3 Xrotation Yrotation Zrotation
				JOINT RightToeBase
				{
					OFFSET 0.000000 -0.126496 -0.046041
					CHANNELS 3 Xrotation Yrotation Zrotation
					End Site
					{
						OFFSET 0.000000 0.000000 0.000000
					}
				}
			}
		}
	}
	JOINT LeftUpLeg
	{
		OFFSET 0.086512 0.000000 -0.025273
		CHANNELS 3 Xrotation Yrotation Zrotation
		JOINT LeftLeg
		{
			OFFSET 0.000000 0.000000 -0.433119
			CHANNELS 3 Xrotation Yrotation Zrotation
			JOINT LeftFoot
			{
				OFFSET 0.000000 0.000000 -0.404688
				CHANNELS 3 Xrotation Yrotation Zrotation
				JOINT LeftToeBase
				{
					OFFSET 0.000000 -0.126496 -0.046041
					CHANNELS 3 Xrotation Yrotation Zrotation
					End Site
					{
						OFFSET 0.000000 0.000000 0.000000
					}
				}
			}
		}
	}
}
MOTION
Frames: 4
Frame Time: 0.033333
0.153083 -0.454091 0.576306 70.846200 0.931000 -0.065900 9.545100 0.497700 -0.602600 6.920800 -0.432800 -0.152700 2.875700 -1.260900 -0.107700 1.965000 -0.530400 0.974000 12.692700 -2.514900 2.406600 4.801800 3.507400 3.251100 -9.082500 7.591700 29.991000 -5.092000 -21.388300 43.600200 0.000000 0.000000 12.200000 -42.956600 71.393600 48.562400 0.000000 0.000000 0.000000 0.000000 0.000000 0.000000 -4.513800 -8.429700 -24.366600 -1.962200 17.321400 -47.601000 0.000000 0.000000 -16.018500 -33.388400 -68.509800 -30.179200 0.000000 0.000000 0.000000 0.000000 0.000000 0.000000 -15.380500 1.681200 -14.690300 8.680800 0.000000 0.000000 -4.666800 -7.475700 -4.610900 -41.649900 0.000000 0.000000 -14.061500 0.969500 12.050500 6.783500 0.000000 0.000000 -1.545200 15.123000 8.406600 -44.168200 0.000000 0.000000 
0.154394 -0.453332 0.575930 70.921000 0.800000 -0.544100 9.533800 0.603300 -0.648000 6.869300 -0.401800 -0.141500 2.842100 -1.182100 0.140900 2.001700 -0.523600 0.998500 13.198000 -2.434600 2.532000 4.671900 3.524000 3.231600 -9.663900 7.563200 30.093500 -4.580000 -21.608900 43.713500 0.000000 0.000000 12.111900 -42.985900 71.275700 48.591400 0.000000 0.000000 0.000000 0.000000 0.000000 0.000000 -4.430300 -8.385000 -23.992300 -2.073900 17.388800 -47.805200 0.000000 0.000000 -16.131600 -33.779300 -68.579800 -30.749800 0.000000 0.000000 0.000000 0.000000 0.000000 0.000000 -15.428200 1.799700 -14.928300 8.545100 0.000000 0.000000 -4.780700 -7.683200 -3.921200 -41.913100 0.000000 0.000000 -13.942800 0.504900 10.340300 6.560100 0.000000 0.000000 -1.180300 15.653700 6.930400 -46.148100 0.000000 0.000000 
0.155677 -0.452879 0.575935 71.050100 0.668600 -0.959200 9.502600 0.671100 -0.690800 6.847600 -0.364400 -0.134700 2.805000 -1.100800 0.336300 2.033500 -0.503600 1.003700 13.671000 -2.250200 2.648700 4.682900 3.618300 3.209500 -10.280700 7.551900 30.193800 -4.016000 -21.814000 43.844500 0.000000 0.000000 12.079500 -42.977000 71.226600 48.550100 0.000000 0.000000 0.000000 0.000000 0.000000 0.000000 -4.836600 -8.330400 -23.609700 -1.658000 17.585200 -48.097400 0.000000 0.000000 -16.209100 -33.950000 -68.696600 -31.034800 0.000000 0.000000 0.000000 0.000000 0.000000 0.000000 -15.470100 1.906500 -14.703500 8.225000 0.000000 0.000000 -4.688300 -7.885000 -3.527500 -43.244300 0.000000 0.000000 -13.794600 0.281300 9.330900 5.908200 0.000000 0.000000 -0.194500 16.432400 5.942600 -47.814900 0.000000 0.000000 
0.156771 -0.452549 0.576476 71.123600 0.596600 -0.986600 9.525600 0.647000 -0.672200 6.888700 -0.350800 -0.141100 2.809300 -1.077800 0.306100 2.065500 -0.497600 0.999100 14.145900 -2.053700 2.692800 4.720100 3.677600 3.257700 -10.524300 7.632200 30.085200 -3.988800 -21.914100 43.944900 0.000000 0.000000 12.092500 -43.114900 71.249700 48.759800 0.000000 0.000000 0.000000 0.000000 0.000000 0.000000 -5.230600 -8.367600 -23.417200 -1.378700 17.741100 -48.361500 0.000000 0.000000 -16.235600 -34.022100 -68.856500 -31.134600 0.000000 0.000000 0.000000 0.000000 0.000000 0.000000 -15.447200 2.023000 -14.526100 7.920600 0.000000 0.000000 -4.569500 -8.023900 -3.521100 -44.470400 0.000000 0.000000 -13.873900 0.260800 8.475300 5.710200 0.000000 0.000000 0.498700 16.840900 5.746200 -49.643900 0.000000 0.000000 
